<svg width="19" height="17" viewBox="0 0 19 17" fill="none" xmlns="http://www.w3.org/2000/svg">
<path d="M13.2802 2.76309L16.2556 5.75801C16.3809 5.88418 16.3809 6.09004 16.2556 6.21621L9.05139 13.4678L5.99028 13.8098C5.58125 13.8562 5.2349 13.5076 5.28108 13.0959L5.62083 10.0146L12.825 2.76309C12.9503 2.63691 13.1549 2.63691 13.2802 2.76309ZM18.624 2.00273L17.0142 0.382422C16.5128 -0.122266 15.6981 -0.122266 15.1934 0.382422L14.0257 1.55781C13.9003 1.68398 13.9003 1.88984 14.0257 2.01602L17.001 5.01094C17.1264 5.13711 17.3309 5.13711 17.4563 5.01094L18.624 3.83555C19.1253 3.32754 19.1253 2.50742 18.624 2.00273ZM12.6667 11.4955V14.8756H2.11111V4.25059H9.69132C9.79688 4.25059 9.89583 4.20742 9.9717 4.13438L11.2911 2.80625C11.5418 2.55391 11.3637 2.12559 11.0108 2.12559H1.58333C0.709201 2.12559 0 2.83945 0 3.71934V15.4068C0 16.2867 0.709201 17.0006 1.58333 17.0006H13.1944C14.0686 17.0006 14.7778 16.2867 14.7778 15.4068V10.1674C14.7778 9.81211 14.3523 9.63613 14.1016 9.88516L12.7821 11.2133C12.7095 11.2896 12.6667 11.3893 12.6667 11.4955Z" fill="#0072BC"/>
</svg>
