<svg width="13" height="18" viewBox="0 0 13 18" fill="none" xmlns="http://www.w3.org/2000/svg">
<path d="M12.5227 3.44092L9.68229 0.491309C9.3776 0.174902 8.96458 -0.00439453 8.53464 -0.00439453H1.625C0.727865 -0.000878906 0 0.75498 0 1.68662V16.3116C0 17.2433 0.727865 17.9991 1.625 17.9991H11.375C12.2721 17.9991 13 17.2433 13 16.3116V4.63623C13 4.18975 12.8273 3.75732 12.5227 3.44092ZM11.243 4.49912H8.66667V1.82373L11.243 4.49912ZM1.625 16.3116V1.68662H7.04167V5.34287C7.04167 5.81045 7.40391 6.18662 7.85417 6.18662H11.375V16.3116H1.625ZM8.80208 7.87412H7.82708C7.67813 7.87412 7.54271 7.9585 7.47161 8.09561C6.86224 9.25928 6.72005 9.58623 6.50339 10.1241C6.03281 9.10107 6.26979 9.51592 5.53516 8.09561C5.46406 7.9585 5.32526 7.87412 5.1763 7.87412H4.19792C3.88307 7.87412 3.6901 8.22568 3.84583 8.50693L5.41328 11.2491L3.84583 13.9913C3.68672 14.2726 3.88307 14.6241 4.19792 14.6241H5.1763C5.32526 14.6241 5.46068 14.5397 5.53177 14.4026C6.26641 12.9964 6.31042 12.8206 6.5 12.3741C7.00443 13.4358 6.69974 12.9331 7.46823 14.4026C7.53932 14.5397 7.67813 14.6241 7.82708 14.6241H8.80208C9.11693 14.6241 9.3099 14.2726 9.15417 13.9913L7.58333 11.2491C7.60703 11.2104 8.60911 9.47373 9.15078 8.50693C9.3099 8.22568 9.11354 7.87412 8.80208 7.87412Z" fill="#FF9330"/>
</svg>
