<svg width="16" height="18" viewBox="0 0 16 18" fill="none" xmlns="http://www.w3.org/2000/svg">
<path d="M10.6667 0H5.33333C4.35289 0 3.55556 0.8073 3.55556 1.8V2.7H0V4.5H1.77778V16.2C1.77778 17.1927 2.57511 18 3.55556 18H12.4444C13.4249 18 14.2222 17.1927 14.2222 16.2V4.5H16V2.7H12.4444V1.8C12.4444 0.8073 11.6471 0 10.6667 0ZM5.33333 1.8H10.6667V2.7H5.33333V1.8ZM12.4444 16.2H3.55556V4.5H12.4444V16.2Z" fill="#FA6666"/>
<path d="M5.33333 6.3H7.11111V14.4H5.33333V6.3Z" fill="#FA6666"/>
<path d="M8.88889 6.3H10.6667V14.4H8.88889V6.3Z" fill="#FA6666"/>
</svg>
