<svg width="25" height="25" viewBox="0 0 25 25" fill="none" xmlns="http://www.w3.org/2000/svg">
<path d="M9.375 3.125H5.20833C4.6558 3.125 4.12589 3.34449 3.73519 3.73519C3.34449 4.12589 3.125 4.6558 3.125 5.20833V9.375C3.125 9.92754 3.34449 10.4574 3.73519 10.8481C4.12589 11.2388 4.6558 11.4583 5.20833 11.4583H9.375C9.92754 11.4583 10.4574 11.2388 10.8481 10.8481C11.2388 10.4574 11.4583 9.92754 11.4583 9.375V5.20833C11.4583 4.6558 11.2388 4.12589 10.8481 3.73519C10.4574 3.34449 9.92754 3.125 9.375 3.125Z" fill="#A0ABBB"/>
<path d="M19.7916 3.125H15.625C15.0724 3.125 14.5425 3.34449 14.1518 3.73519C13.7611 4.12589 13.5416 4.6558 13.5416 5.20833V9.375C13.5416 9.92754 13.7611 10.4574 14.1518 10.8481C14.5425 11.2388 15.0724 11.4583 15.625 11.4583H19.7916C20.3442 11.4583 20.8741 11.2388 21.2648 10.8481C21.6555 10.4574 21.875 9.92754 21.875 9.375V5.20833C21.875 4.6558 21.6555 4.12589 21.2648 3.73519C20.8741 3.34449 20.3442 3.125 19.7916 3.125Z" fill="#A0ABBB"/>
<path d="M9.375 13.5417H5.20833C4.6558 13.5417 4.12589 13.7612 3.73519 14.1519C3.34449 14.5426 3.125 15.0725 3.125 15.6251V19.7917C3.125 20.3443 3.34449 20.8742 3.73519 21.2649C4.12589 21.6556 4.6558 21.8751 5.20833 21.8751H9.375C9.92754 21.8751 10.4574 21.6556 10.8481 21.2649C11.2388 20.8742 11.4583 20.3443 11.4583 19.7917V15.6251C11.4583 15.0725 11.2388 14.5426 10.8481 14.1519C10.4574 13.7612 9.92754 13.5417 9.375 13.5417Z" fill="#A0ABBB"/>
<path d="M19.7916 13.5417H15.625C15.0724 13.5417 14.5425 13.7612 14.1518 14.1519C13.7611 14.5426 13.5416 15.0725 13.5416 15.6251V19.7917C13.5416 20.3443 13.7611 20.8742 14.1518 21.2649C14.5425 21.6556 15.0724 21.8751 15.625 21.8751H19.7916C20.3442 21.8751 20.8741 21.6556 21.2648 21.2649C21.6555 20.8742 21.875 20.3443 21.875 19.7917V15.6251C21.875 15.0725 21.6555 14.5426 21.2648 14.1519C20.8741 13.7612 20.3442 13.5417 19.7916 13.5417Z" fill="#A0ABBB"/>
</svg>
