<svg width="31" height="25" viewBox="0 0 31 25" fill="none" xmlns="http://www.w3.org/2000/svg">
<path d="M9.30556 14.8168H6.07639C5.48202 14.8168 5 15.42 5 16.1638V20.2047C5 20.9485 5.48202 21.5517 6.07639 21.5517H9.30556C9.89992 21.5517 10.3819 20.9485 10.3819 20.2047V16.1638C10.3819 15.42 9.89992 14.8168 9.30556 14.8168ZM8.49826 11.4494H14.9566V13.4698H16.5712V11.4494H23.0295V13.4698H24.6441V11.0457C24.6441 10.1546 24.0645 9.42888 23.3521 9.42888H16.5712V6.73491H17.9167C18.511 6.73491 18.9931 6.13172 18.9931 5.38793V1.34698C18.9931 0.603196 18.511 0 17.9167 0H13.6111C13.0167 0 12.5347 0.603196 12.5347 1.34698V5.38793C12.5347 6.13172 13.0167 6.73491 13.6111 6.73491H14.9566V9.42888H8.17568C7.46325 9.42888 6.88368 10.1541 6.88368 11.0457V13.4698H8.49826V11.4494ZM17.3785 14.8168H14.1493C13.5549 14.8168 13.0729 15.42 13.0729 16.1638V20.2047C13.0729 20.9485 13.5549 21.5517 14.1493 21.5517H17.3785C17.9728 21.5517 18.4549 20.9485 18.4549 20.2047V16.1638C18.4549 15.42 17.9728 14.8168 17.3785 14.8168ZM25.4514 14.8168H22.2222C21.6279 14.8168 21.1458 15.42 21.1458 16.1638V20.2047C21.1458 20.9485 21.6279 21.5517 22.2222 21.5517H25.4514C26.0458 21.5517 26.5278 20.9485 26.5278 20.2047V16.1638C26.5278 15.42 26.0458 14.8168 25.4514 14.8168Z" fill="#0072BC"/>
</svg>
