<svg width="25" height="25" viewBox="0 0 25 25" fill="none" xmlns="http://www.w3.org/2000/svg">
<path d="M9.37504 11.4583C10.1991 11.4583 11.0047 11.214 11.6899 10.7561C12.3751 10.2983 12.9092 9.64754 13.2245 8.88618C13.5399 8.12483 13.6224 7.28705 13.4616 6.47879C13.3009 5.67054 12.904 4.92811 12.3213 4.34539C11.7386 3.76267 10.9962 3.36583 10.1879 3.20506C9.37966 3.04429 8.54189 3.12681 7.78053 3.44217C7.01917 3.75754 6.36842 4.29159 5.91058 4.97679C5.45274 5.662 5.20837 6.46758 5.20837 7.29167C5.20837 8.39674 5.64736 9.45655 6.42876 10.2379C7.21016 11.0193 8.26997 11.4583 9.37504 11.4583Z" fill="#0072BC"/>
<path d="M17.7083 13.5417C18.3263 13.5417 18.9305 13.3584 19.4444 13.015C19.9583 12.6716 20.3589 12.1836 20.5954 11.6126C20.8319 11.0415 20.8938 10.4132 20.7732 9.80702C20.6526 9.20083 20.355 8.644 19.918 8.20696C19.4809 7.76993 18.9241 7.4723 18.3179 7.35172C17.7117 7.23114 17.0834 7.29303 16.5124 7.52955C15.9413 7.76607 15.4533 8.16661 15.1099 8.68052C14.7665 9.19442 14.5833 9.79861 14.5833 10.4167C14.5833 11.2455 14.9125 12.0403 15.4985 12.6264C16.0846 13.2124 16.8795 13.5417 17.7083 13.5417Z" fill="#0072BC"/>
<path d="M21.875 20.8333C22.1513 20.8333 22.4163 20.7236 22.6116 20.5282C22.807 20.3329 22.9167 20.0679 22.9167 19.7917C22.9159 18.8181 22.6422 17.8643 22.1267 17.0384C21.6112 16.2125 20.8746 15.5477 20.0004 15.1192C19.1262 14.6908 18.1494 14.516 17.1809 14.6146C16.2123 14.7132 15.2908 15.0813 14.5209 15.6771C13.5006 14.6608 12.2022 13.9694 10.7894 13.69C9.3767 13.4107 7.91287 13.5559 6.58257 14.1074C5.25226 14.6589 4.11505 15.592 3.31435 16.789C2.51365 17.986 2.08532 19.3932 2.08337 20.8333C2.08337 21.1096 2.19312 21.3745 2.38847 21.5699C2.58382 21.7652 2.84877 21.875 3.12504 21.875H15.625C15.9013 21.875 16.1663 21.7652 16.3616 21.5699C16.557 21.3745 16.6667 21.1096 16.6667 20.8333" fill="#0072BC"/>
</svg>
