<svg width="14" height="10" viewBox="0 0 14 10" fill="none" xmlns="http://www.w3.org/2000/svg">
<path d="M13.5799 4.66668C13.1532 3.92668 10.8065 0.213349 6.81988 0.333349C3.13322 0.426683 0.999883 3.66668 0.419883 4.66668C0.361371 4.76803 0.330566 4.88299 0.330566 5.00002C0.330566 5.11704 0.361371 5.232 0.419883 5.33335C0.839883 6.06002 3.08655 9.66668 7.01322 9.66668H7.17988C10.8665 9.57335 13.0065 6.33335 13.5799 5.33335C13.6384 5.232 13.6692 5.11704 13.6692 5.00002C13.6692 4.88299 13.6384 4.76803 13.5799 4.66668ZM6.99988 7.33335C6.53839 7.33335 6.08727 7.1965 5.70355 6.94011C5.31984 6.68372 5.02077 6.3193 4.84416 5.89294C4.66756 5.46658 4.62135 4.99743 4.71138 4.54481C4.80142 4.09218 5.02364 3.67642 5.34997 3.3501C5.67629 3.02378 6.09205 2.80155 6.54467 2.71152C6.99729 2.62148 7.46645 2.66769 7.89281 2.8443C8.31917 3.0209 8.68359 3.31997 8.93998 3.70369C9.19637 4.0874 9.33322 4.53853 9.33322 5.00002C9.33322 5.61885 9.08738 6.21235 8.6498 6.64993C8.21221 7.08752 7.61872 7.33335 6.99988 7.33335Z" fill="#0072BC"/>
</svg>
