<svg width="48" height="39" viewBox="0 0 48 39" fill="none" xmlns="http://www.w3.org/2000/svg">
<path fill-rule="evenodd" clip-rule="evenodd" d="M24.885 27.6854C25.3642 27.6854 25.3055 27.4115 25.3055 26.8932C25.3055 26.3847 25.3055 24.9178 25.3055 24.4093C25.3055 23.891 25.2566 23.7345 25.55 23.7345C26.5768 23.7345 26.8506 23.6465 26.8506 22.7272V13.4858C26.8506 10.9725 25.0708 11.3832 24.5721 10.4639C23.8582 9.22197 25.902 9.22197 25.1588 6.52287C24.973 5.91655 24.4938 5.53516 23.5648 5.53516C22.6455 5.53516 22.1663 5.91655 21.9708 6.52287C21.2275 9.22197 23.2714 9.22197 22.5575 10.4639C22.0588 11.3832 20.2789 10.9627 20.2789 13.4858V22.7272C20.2789 23.6367 20.5528 23.7345 21.5796 23.7345C21.873 23.7345 21.8241 23.9008 21.8241 24.4093C21.8241 24.9178 21.8241 26.3847 21.8241 26.8932C21.8241 27.4018 21.7654 27.6854 22.2446 27.6854C22.4499 27.6854 24.6992 27.6854 24.885 27.6854Z" fill="#0072BC"/>
<path fill-rule="evenodd" clip-rule="evenodd" d="M16.7976 7.62788C15.8881 8.59604 14.4505 10.8551 15.3893 12.7327C17.2963 13.4661 17.1496 6.68907 19.526 6.80642C20.6995 7.89193 19.1739 11.0898 18.7045 12.498C18.1178 14.2289 17.6484 17.8668 16.5335 19.6271C15.5947 21.094 16.2988 25.7001 16.0054 27.2844C15.2133 28.0765 13.0716 27.5191 12.1621 27.3724C12.1621 25.5534 11.9274 24.1158 11.6341 21.2114C11.6047 20.6246 10.9886 11.6472 11.4874 10.5617C12.5142 8.30266 18.1178 3.98997 18.8806 3.16851C19.5553 2.43506 21.9219 0 22.8412 0C23.4866 0.44007 23.1052 1.4669 22.9585 1.87763C22.0491 4.13666 18.108 6.36635 16.7976 7.62788Z" fill="#0072BC"/>
<path fill-rule="evenodd" clip-rule="evenodd" d="M30.4593 7.62788C31.3394 8.59604 32.777 10.8551 31.8675 12.7327C29.9312 13.4661 30.0779 6.68907 27.7015 6.80642C26.5573 7.89193 28.0829 11.0898 28.5523 12.498C29.1391 14.2289 29.6085 17.8668 30.7233 19.6271C31.6328 21.094 30.958 25.7001 31.2221 27.2844C32.0436 28.0765 34.1559 27.5191 35.0947 27.3724C35.0947 25.5534 35.3001 24.1158 35.5935 21.2114C35.6521 20.6246 36.2682 11.6472 35.7695 10.5617C34.7427 8.30266 29.1391 3.98997 28.3763 3.16851C27.6722 2.43506 25.3349 0 24.4157 0C23.7409 0.44007 24.1516 1.4669 24.2983 1.87763C25.2176 4.13666 29.1391 6.36635 30.4593 7.62788Z" fill="#0072BC"/>
<path fill-rule="evenodd" clip-rule="evenodd" d="M8.6416 4.58642C8.14286 5.05583 7.02801 5.37855 6.26522 6.40538C5.97184 5.84796 6.73463 4.49841 7.64411 3.70628C8.31888 3.14886 9.63909 2.23938 10.0205 2.15137C10.3236 2.82614 9.26748 3.85297 8.6416 4.58642Z" fill="#0072BC"/>
<path fill-rule="evenodd" clip-rule="evenodd" d="M7.08672 8.26345C6.23592 9.05558 5.32644 9.37829 4.14314 10.8256C3.65417 9.08491 3.76174 7.54956 3.99645 6.52273C4.40718 5.17318 5.08196 3.67694 6.23592 3.19775C6.00121 3.97032 5.61982 5.02649 5.5318 6.46405C5.03306 8.43948 4.73968 8.49816 4.85703 8.7622C4.97438 8.7622 5.61982 7.73537 6.41195 6.94324C7.35076 5.99464 8.52428 5.78928 9.28707 5.23186C9.16972 5.61325 8.49494 6.81611 7.08672 8.26345Z" fill="#0072BC"/>
<path fill-rule="evenodd" clip-rule="evenodd" d="M2.94025 16.4001C1.79606 14.3464 1.67871 12.8404 1.5907 11.1095C1.64937 9.9066 2.23613 7.10971 3.11627 6.69897C2.85223 9.22204 3.52701 9.46653 3.26296 11.5495C3.26296 11.6669 2.96958 13.8379 2.96958 13.9552C3.32164 13.8966 2.99892 11.9603 7.02801 9.16337C6.14787 10.6889 6.5586 11.1584 4.97435 13.1925C3.11627 15.0212 2.85223 16.8108 2.94025 16.4001Z" fill="#0072BC"/>
<path fill-rule="evenodd" clip-rule="evenodd" d="M4.56362 18.3361C3.71282 19.5683 3.85951 20.1844 3.65415 20.781C1.62004 19.6075 -0.668322 14.9329 0.182481 12.6152C0.710565 14.3755 1.44402 14.7569 1.9721 16.2238C2.88158 18.4339 2.73489 19.1087 3.32165 19.6075C3.2043 18.4633 3.58569 17.1137 3.96708 16.1065C4.52451 15.2557 4.96458 14.1408 5.37531 13.7496C5.82516 15.373 5.50244 16.6932 4.56362 18.3361Z" fill="#0072BC"/>
<path fill-rule="evenodd" clip-rule="evenodd" d="M6.38263 22.336C6.38263 24.1256 6.05991 24.9177 5.91322 26.2477C2.41222 25.1036 0.593262 21.1038 0.593262 19.1382C1.64943 21.5537 3.20434 21.5145 5.23845 24.9275C5.41448 23.6367 4.88639 24.6048 4.82771 22.1698C4.88639 19.6076 5.41448 19.5196 5.50249 17.9353C6.14793 18.6394 6.38263 21.4559 6.38263 22.336Z" fill="#0072BC"/>
<path fill-rule="evenodd" clip-rule="evenodd" d="M9.28702 27.4212C9.55106 28.7414 9.66842 30.3061 9.87378 31.4503C7.8788 30.7168 7.37027 31.2742 4.99389 29.778C3.90839 29.1912 1.9623 26.7171 2.08943 24.9568C4.43647 27.5777 4.85698 27.2745 6.00117 28.2524C7.05733 29.1032 7.90814 30.3745 8.67092 30.1985C8.7296 29.4944 6.93998 27.9591 7.17469 23.5583C7.64409 24.0473 8.93497 26.0423 9.28702 27.4212Z" fill="#0072BC"/>
<path fill-rule="evenodd" clip-rule="evenodd" d="M13.2574 30.717C13.8735 31.5971 13.7268 31.9785 15.311 33.8073C14.9297 33.9833 12.6706 34.5701 11.1646 34.6287C10.1671 34.6287 6.63678 33.6899 5.46326 31.2744C7.48758 32.3599 7.51692 32.0959 10.2258 32.6826C12.1621 33.1227 13.5508 33.7388 14.0789 33.6801C13.9615 33.4161 12.4653 32.8 11.4384 31.4993C10.4116 30.1205 10.6463 28.5655 9.73683 27.4116C10.3529 27.2453 12.7586 30.0716 13.2574 30.717Z" fill="#0072BC"/>
<path fill-rule="evenodd" clip-rule="evenodd" d="M38.449 4.58642C38.9184 5.05583 40.0625 5.37855 40.8058 6.40538C41.1285 5.84796 40.3364 4.49841 39.4269 3.70628C38.7815 3.14886 37.4612 2.23938 37.0407 2.15137C36.7474 2.82614 37.8035 3.85297 38.449 4.58642Z" fill="#0072BC"/>
<path fill-rule="evenodd" clip-rule="evenodd" d="M40.0039 8.26344C40.8253 9.05556 41.7348 9.37828 42.9181 10.8256C43.4169 9.09468 43.2995 7.55932 43.0648 6.53249C42.6834 5.18295 41.9793 3.68671 40.8253 3.20752C41.0894 3.97031 41.4414 5.02648 41.5295 6.47382C42.0282 8.43947 42.3216 8.49814 42.2042 8.76218C42.0869 8.76218 41.4414 7.73535 40.6493 6.94323C39.7398 6.00441 38.5565 5.79904 37.7644 5.24162C37.8915 5.61324 38.5956 6.8161 40.0039 8.26344Z" fill="#0072BC"/>
<path fill-rule="evenodd" clip-rule="evenodd" d="M44.121 16.4001C45.2946 14.3464 45.3826 12.8404 45.4706 11.1095C45.4119 9.9066 44.8252 7.10971 43.9744 6.69897C44.2091 9.22204 43.5343 9.46653 43.8277 11.5495C43.8277 11.6669 44.0917 13.8379 44.0917 13.9552C43.769 13.8966 44.0624 11.9603 40.0626 9.16337C40.9134 10.6889 40.5027 11.1584 42.0869 13.1925C43.9744 15.0212 44.2091 16.8108 44.121 16.4001Z" fill="#0072BC"/>
<path fill-rule="evenodd" clip-rule="evenodd" d="M42.5368 18.3361C43.3582 19.5683 43.2115 20.1844 43.4169 20.781C45.4412 19.6075 47.7687 14.9329 46.8886 12.6152C46.3898 14.3755 45.627 14.7569 45.1283 16.2238C44.1895 18.4339 44.3362 19.1087 43.7787 19.6075C43.8961 18.4633 43.4854 17.1137 43.104 16.1065C42.5759 15.2557 42.1065 14.1408 41.6957 13.7496C41.2654 15.373 41.5588 16.6932 42.5368 18.3361Z" fill="#0072BC"/>
<path fill-rule="evenodd" clip-rule="evenodd" d="M40.6787 22.336C40.6787 24.1256 41.0308 24.9177 41.1775 26.2477C44.6491 25.1036 46.4974 21.1038 46.4974 19.1382C45.4119 21.5537 43.8766 21.5145 41.8229 24.9275C41.6469 23.6367 42.1749 24.6048 42.2336 22.1698C42.1749 19.6076 41.6469 19.5196 41.5589 17.9353C40.9134 18.6394 40.6787 21.4559 40.6787 22.336Z" fill="#0072BC"/>
<path fill-rule="evenodd" clip-rule="evenodd" d="M37.7742 27.4212C37.5102 28.7414 37.4222 30.3061 37.2168 31.4503C39.1824 30.7168 39.6812 31.2742 42.0673 29.778C43.1529 29.1912 45.1283 26.7171 45.0011 24.9568C42.6541 27.5777 42.214 27.2745 41.0894 28.2524C40.0332 29.1032 39.1531 30.3745 38.3805 30.1985C38.3219 29.4944 40.1213 27.9591 39.9061 23.5583C39.4171 24.0473 38.1263 26.0423 37.7742 27.4212Z" fill="#0072BC"/>
<path fill-rule="evenodd" clip-rule="evenodd" d="M33.8039 30.717C33.2171 31.5971 33.3638 31.9785 31.7502 33.8073C32.161 33.9833 34.4004 34.5701 35.926 34.6287C36.8942 34.6287 40.4245 33.6899 41.598 31.2744C39.5737 32.3599 39.5444 32.0959 36.8355 32.6826C34.8992 33.1227 33.5399 33.7388 32.9824 33.6801C33.0998 33.4161 34.6254 32.8 35.6326 31.4993C36.6595 30.1205 36.4248 28.5655 37.3636 27.4116C36.7084 27.2453 34.3026 30.0716 33.8039 30.717Z" fill="#0072BC"/>
<path fill-rule="evenodd" clip-rule="evenodd" d="M18.5188 39.0001L17.932 38.7067C17.932 38.7067 21.6677 34.1495 28.0732 34.5016C34.4786 34.8536 34.0386 36.3499 37.4809 36.1152C37.8623 36.0858 37.1875 36.5846 37.1875 36.5846C37.1875 36.5846 33.843 37.8754 29.6966 36.4672C25.5697 35.0688 22.8999 34.2082 18.5188 39.0001Z" fill="#0072BC"/>
<path fill-rule="evenodd" clip-rule="evenodd" d="M28.6599 39.0001L29.2466 38.7067C29.2466 38.7067 25.5403 34.1495 19.1348 34.5016C12.7 34.8536 13.1401 36.3499 9.69773 36.1152C9.31633 36.0858 9.99111 36.5846 9.99111 36.5846C9.99111 36.5846 13.3454 37.8754 17.4919 36.4672C21.6383 35.0688 24.3081 34.2082 28.6599 39.0001Z" fill="#0072BC"/>
</svg>
