<svg width="19" height="19" viewBox="0 0 19 19" fill="none" xmlns="http://www.w3.org/2000/svg">
<path d="M7.125 2.375H3.95833C3.53841 2.375 3.13568 2.54181 2.83875 2.83875C2.54181 3.13568 2.375 3.53841 2.375 3.95833V7.125C2.375 7.54493 2.54181 7.94765 2.83875 8.24459C3.13568 8.54152 3.53841 8.70833 3.95833 8.70833H7.125C7.54493 8.70833 7.94765 8.54152 8.24459 8.24459C8.54152 7.94765 8.70833 7.54493 8.70833 7.125V3.95833C8.70833 3.53841 8.54152 3.13568 8.24459 2.83875C7.94765 2.54181 7.54493 2.375 7.125 2.375Z" fill="#0072BC"/>
<path d="M15.0417 2.375H11.8751C11.4552 2.375 11.0524 2.54181 10.7555 2.83875C10.4586 3.13568 10.2917 3.53841 10.2917 3.95833V7.125C10.2917 7.54493 10.4586 7.94765 10.7555 8.24459C11.0524 8.54152 11.4552 8.70833 11.8751 8.70833H15.0417C15.4617 8.70833 15.8644 8.54152 16.1613 8.24459C16.4583 7.94765 16.6251 7.54493 16.6251 7.125V3.95833C16.6251 3.53841 16.4583 3.13568 16.1613 2.83875C15.8644 2.54181 15.4617 2.375 15.0417 2.375Z" fill="#0072BC"/>
<path d="M7.125 10.2917H3.95833C3.53841 10.2917 3.13568 10.4585 2.83875 10.7554C2.54181 11.0524 2.375 11.4551 2.375 11.875V15.0417C2.375 15.4616 2.54181 15.8643 2.83875 16.1613C3.13568 16.4582 3.53841 16.625 3.95833 16.625H7.125C7.54493 16.625 7.94765 16.4582 8.24459 16.1613C8.54152 15.8643 8.70833 15.4616 8.70833 15.0417V11.875C8.70833 11.4551 8.54152 11.0524 8.24459 10.7554C7.94765 10.4585 7.54493 10.2917 7.125 10.2917Z" fill="#0072BC"/>
<path d="M15.0417 10.2917H11.8751C11.4552 10.2917 11.0524 10.4585 10.7555 10.7554C10.4586 11.0524 10.2917 11.4551 10.2917 11.875V15.0417C10.2917 15.4616 10.4586 15.8643 10.7555 16.1613C11.0524 16.4582 11.4552 16.625 11.8751 16.625H15.0417C15.4617 16.625 15.8644 16.4582 16.1613 16.1613C16.4583 15.8643 16.6251 15.4616 16.6251 15.0417V11.875C16.6251 11.4551 16.4583 11.0524 16.1613 10.7554C15.8644 10.4585 15.4617 10.2917 15.0417 10.2917Z" fill="#0072BC"/>
</svg>
