<svg width="14" height="14" viewBox="0 0 14 14" fill="none" xmlns="http://www.w3.org/2000/svg">
<path d="M7.00017 0.333313C5.68162 0.333313 4.39269 0.724306 3.29636 1.45685C2.20004 2.18939 1.34555 3.23058 0.840969 4.44876C0.336385 5.66693 0.204362 7.00738 0.461597 8.30058C0.718832 9.59379 1.35377 10.7817 2.28612 11.714C3.21847 12.6464 4.40636 13.2813 5.69956 13.5385C6.99277 13.7958 8.33321 13.6638 9.55139 13.1592C10.7696 12.6546 11.8108 11.8001 12.5433 10.7038C13.2758 9.60745 13.6668 8.31852 13.6668 6.99998C13.6668 6.1245 13.4944 5.25759 13.1594 4.44876C12.8243 3.63992 12.3333 2.90499 11.7142 2.28593C11.0952 1.66688 10.3602 1.17581 9.55139 0.840783C8.74255 0.505751 7.87564 0.333313 7.00017 0.333313ZM9.86683 5.40665L6.82017 9.40665C6.75806 9.48732 6.6783 9.5527 6.58701 9.59777C6.49571 9.64284 6.39531 9.6664 6.2935 9.66665C6.19224 9.66719 6.09218 9.64466 6.00093 9.60077C5.90967 9.55687 5.82961 9.49277 5.76683 9.41331L4.14017 7.33998C4.03143 7.2003 3.98263 7.02314 4.00451 6.84748C4.02639 6.67182 4.11715 6.51205 4.25683 6.40331C4.39651 6.29457 4.57367 6.24578 4.74933 6.26766C4.92499 6.28954 5.08476 6.3803 5.1935 6.51998L6.28017 7.90665L8.80017 4.57331C8.85357 4.50327 8.92025 4.44444 8.99639 4.40017C9.07253 4.3559 9.15664 4.32706 9.24393 4.3153C9.33122 4.30354 9.41997 4.30908 9.50511 4.33162C9.59026 4.35416 9.67013 4.39324 9.74017 4.44665C9.8102 4.50005 9.86904 4.56673 9.91331 4.64287C9.95758 4.71901 9.98642 4.80313 9.99818 4.89041C10.0099 4.9777 10.0044 5.06645 9.98186 5.15159C9.95932 5.23674 9.92024 5.31661 9.86683 5.38665V5.40665Z" fill="#FA6666"/>
</svg>
