<svg width="13" height="12" viewBox="0 0 13 12" fill="none" xmlns="http://www.w3.org/2000/svg">
<path d="M9.08646 1.89079L11.1222 3.93995C11.208 4.02627 11.208 4.16713 11.1222 4.25345L6.19306 9.21505L4.09861 9.44904C3.81875 9.48085 3.58177 9.24231 3.61337 8.96061L3.84583 6.85238L8.775 1.89079C8.86076 1.80446 9.00069 1.80446 9.08646 1.89079ZM12.7427 1.37055L11.6413 0.261914C11.2983 -0.0833984 10.7408 -0.0833984 10.3955 0.261914L9.59653 1.06613C9.51076 1.15246 9.51076 1.29331 9.59653 1.37964L11.6323 3.42879C11.7181 3.51512 11.858 3.51512 11.9438 3.42879L12.7427 2.62458C13.0858 2.27699 13.0858 1.71586 12.7427 1.37055ZM8.66667 7.8656V10.1783H1.44444V2.90855H6.6309C6.70312 2.90855 6.77083 2.87902 6.82274 2.82904L7.72552 1.92032C7.89705 1.74767 7.77517 1.45461 7.53368 1.45461H1.08333C0.485243 1.45461 0 1.94304 0 2.54507V10.5418C0 11.1438 0.485243 11.6322 1.08333 11.6322H9.02778C9.62587 11.6322 10.1111 11.1438 10.1111 10.5418V6.95689C10.1111 6.71381 9.81997 6.5934 9.64844 6.76378L8.74566 7.6725C8.69601 7.72475 8.66667 7.79291 8.66667 7.8656Z" fill="#4E5B6D"/>
</svg>
