<svg width="14" height="10" viewBox="0 0 14 10" fill="none" xmlns="http://www.w3.org/2000/svg">
<path d="M13.5799 4.66626C13.1532 3.92626 10.8065 0.212922 6.81988 0.332922C3.13322 0.426256 0.999883 3.66626 0.419883 4.66626C0.361371 4.7676 0.330566 4.88256 0.330566 4.99959C0.330566 5.11661 0.361371 5.23158 0.419883 5.33292C0.839883 6.05959 3.08655 9.66626 7.01322 9.66626H7.17988C10.8665 9.57292 13.0065 6.33292 13.5799 5.33292C13.6384 5.23158 13.6692 5.11661 13.6692 4.99959C13.6692 4.88256 13.6384 4.7676 13.5799 4.66626ZM6.99988 7.33292C6.53839 7.33292 6.08727 7.19607 5.70355 6.93968C5.31984 6.68329 5.02077 6.31888 4.84416 5.89252C4.66756 5.46616 4.62135 4.997 4.71138 4.54438C4.80142 4.09176 5.02364 3.676 5.34997 3.34967C5.67629 3.02335 6.09205 2.80112 6.54467 2.71109C6.99729 2.62106 7.46645 2.66727 7.89281 2.84387C8.31917 3.02047 8.68359 3.31954 8.93998 3.70326C9.19637 4.08697 9.33322 4.5381 9.33322 4.99959C9.33322 5.61843 9.08738 6.21192 8.6498 6.6495C8.21221 7.08709 7.61872 7.33292 6.99988 7.33292Z" fill="#0072BC"/>
</svg>
