<svg width="25" height="20" viewBox="0 0 25 20" fill="none" xmlns="http://www.w3.org/2000/svg">
<g clip-path="url(#clip0)">
<path d="M19.0619 7.50056H13.1244V9.68806C13.1244 11.2388 11.8627 12.5006 10.3119 12.5006C8.76114 12.5006 7.49943 11.2388 7.49943 9.68806V4.93806L4.96427 6.4615C4.21036 6.91071 3.74943 7.72712 3.74943 8.60212V10.4498L0.624426 12.2545C0.0267698 12.5982 -0.180261 13.3638 0.167395 13.9615L3.29239 19.3756C3.63614 19.9732 4.40177 20.1763 4.99943 19.8326L9.03849 17.5006H14.3744C15.7533 17.5006 16.8744 16.3795 16.8744 15.0006H17.4994C18.1908 15.0006 18.7494 14.442 18.7494 13.7506V11.2506H19.0619C19.5815 11.2506 19.9994 10.8326 19.9994 10.3131V8.43806C19.9994 7.91853 19.5815 7.50056 19.0619 7.50056ZM24.8315 6.03962L21.7065 0.625559C21.3627 0.0279025 20.5971 -0.175222 19.9994 0.168528L15.9604 2.50056H11.9682C11.4994 2.50056 11.0424 2.63337 10.644 2.87947L9.33536 3.69587C8.96818 3.92243 8.74943 4.32478 8.74943 4.75447V9.68806C8.74943 10.5513 9.44864 11.2506 10.3119 11.2506C11.1752 11.2506 11.8744 10.5513 11.8744 9.68806V6.25056H19.0619C20.269 6.25056 21.2494 7.23103 21.2494 8.43806V9.55134L24.3744 7.74665C24.9721 7.399 25.1752 6.63728 24.8315 6.03962V6.03962Z" fill="white"/>
</g>
<defs>
<clipPath id="clip0">
<rect width="25" height="20" fill="white"/>
</clipPath>
</defs>
</svg>
