<svg width="25" height="20" viewBox="0 0 25 20" fill="none" xmlns="http://www.w3.org/2000/svg">
<g clip-path="url(#clip0)">
<path d="M19.0619 7.50062H13.1244V9.68812C13.1244 11.2389 11.8627 12.5006 10.3119 12.5006C8.76114 12.5006 7.49943 11.2389 7.49943 9.68812V4.93812L4.96427 6.46156C4.21036 6.91078 3.74943 7.72718 3.74943 8.60218V10.4498L0.624426 12.2545C0.0267698 12.5983 -0.180261 13.3639 0.167395 13.9616L3.29239 19.3756C3.63614 19.9733 4.40177 20.1764 4.99943 19.8327L9.03849 17.5006H14.3744C15.7533 17.5006 16.8744 16.3795 16.8744 15.0006H17.4994C18.1908 15.0006 18.7494 14.442 18.7494 13.7506V11.2506H19.0619C19.5815 11.2506 19.9994 10.8327 19.9994 10.3131V8.43812C19.9994 7.91859 19.5815 7.50062 19.0619 7.50062ZM24.8315 6.03968L21.7065 0.62562C21.3627 0.0279636 20.5971 -0.175161 19.9994 0.168589L15.9604 2.50062H11.9682C11.4994 2.50062 11.0424 2.63343 10.644 2.87953L9.33536 3.69593C8.96817 3.92249 8.74942 4.32484 8.74942 4.75453V9.68812C8.74942 10.5514 9.44864 11.2506 10.3119 11.2506C11.1752 11.2506 11.8744 10.5514 11.8744 9.68812V6.25062H19.0619C20.269 6.25062 21.2494 7.23109 21.2494 8.43812V9.5514L24.3744 7.74671C24.9721 7.39906 25.1752 6.63734 24.8315 6.03968Z" fill="#A0ABBB"/>
</g>
<defs>
<clipPath id="clip0">
<rect width="25" height="20" fill="white"/>
</clipPath>
</defs>
</svg>
