<svg width="25" height="25" viewBox="0 0 25 25" fill="none" xmlns="http://www.w3.org/2000/svg">
<path d="M7.29163 6.25008C7.56789 6.25008 7.83285 6.14033 8.0282 5.94498C8.22355 5.74963 8.33329 5.48468 8.33329 5.20841C8.33329 4.93215 8.22355 4.6672 8.0282 4.47185C7.83285 4.27649 7.56789 4.16675 7.29163 4.16675H5.20829C4.93203 4.16675 4.66707 4.27649 4.47172 4.47185C4.27637 4.6672 4.16663 4.93215 4.16663 5.20841V19.7917C4.16663 20.068 4.27637 20.333 4.47172 20.5283C4.66707 20.7237 4.93203 20.8334 5.20829 20.8334H7.29163C7.56789 20.8334 7.83285 20.7237 8.0282 20.5283C8.22355 20.333 8.33329 20.068 8.33329 19.7917C8.33329 19.5155 8.22355 19.2505 8.0282 19.0552C7.83285 18.8598 7.56789 18.7501 7.29163 18.7501H6.24996V6.25008H7.29163Z" fill="#A0ABBB"/>
<path d="M21.6875 11.8959L18.75 7.72926C18.5907 7.50469 18.349 7.35232 18.0776 7.30548C17.8063 7.25863 17.5275 7.32111 17.3021 7.47926C17.1894 7.5582 17.0935 7.65868 17.0199 7.77489C16.9463 7.8911 16.8964 8.02074 16.8732 8.15633C16.8499 8.29191 16.8538 8.43076 16.8845 8.56485C16.9152 8.69895 16.9722 8.82563 17.0521 8.93759L18.8438 11.4584H18.75H10.4167C10.1404 11.4584 9.87545 11.5682 9.6801 11.7635C9.48475 11.9589 9.375 12.2238 9.375 12.5001C9.375 12.7764 9.48475 13.0413 9.6801 13.2367C9.87545 13.432 10.1404 13.5418 10.4167 13.5418H18.75L16.875 16.0418C16.7929 16.1512 16.7332 16.2757 16.6993 16.4082C16.6653 16.5407 16.6578 16.6787 16.6771 16.8141C16.6965 16.9495 16.7423 17.0798 16.812 17.1975C16.8817 17.3152 16.9739 17.418 17.0833 17.5001C17.2636 17.6353 17.4829 17.7084 17.7083 17.7084C17.87 17.7084 18.0295 17.6708 18.1742 17.5984C18.3188 17.5261 18.4446 17.4211 18.5417 17.2918L21.6667 13.1251C21.8001 12.9489 21.874 12.7349 21.8777 12.5139C21.8815 12.2929 21.8149 12.0765 21.6875 11.8959Z" fill="#A0ABBB"/>
</svg>
