<svg width="25" height="25" viewBox="0 0 25 25" fill="none" xmlns="http://www.w3.org/2000/svg">
<path d="M9.37504 11.4583C10.1991 11.4583 11.0047 11.214 11.6899 10.7561C12.3751 10.2983 12.9092 9.64754 13.2245 8.88618C13.5399 8.12483 13.6224 7.28705 13.4616 6.47879C13.3009 5.67054 12.904 4.92811 12.3213 4.34539C11.7386 3.76267 10.9962 3.36583 10.1879 3.20506C9.37966 3.04429 8.54189 3.12681 7.78053 3.44217C7.01917 3.75754 6.36842 4.29159 5.91058 4.97679C5.45274 5.662 5.20837 6.46758 5.20837 7.29167C5.20837 8.39674 5.64736 9.45655 6.42876 10.2379C7.21016 11.0193 8.26997 11.4583 9.37504 11.4583Z" fill="#A0ABBB"/>
<path d="M17.7083 13.5418C18.3263 13.5418 18.9305 13.3585 19.4444 13.0151C19.9583 12.6717 20.3589 12.1837 20.5954 11.6126C20.8319 11.0416 20.8938 10.4133 20.7732 9.80709C20.6526 9.2009 20.355 8.64408 19.918 8.20704C19.4809 7.77 18.9241 7.47237 18.3179 7.3518C17.7117 7.23122 17.0834 7.2931 16.5124 7.52963C15.9413 7.76615 15.4533 8.16669 15.1099 8.68059C14.7665 9.1945 14.5833 9.79868 14.5833 10.4168C14.5833 11.2456 14.9125 12.0404 15.4985 12.6265C16.0846 13.2125 16.8795 13.5418 17.7083 13.5418Z" fill="#A0ABBB"/>
<path d="M21.875 20.8333C22.1513 20.8333 22.4163 20.7236 22.6116 20.5282C22.807 20.3329 22.9167 20.0679 22.9167 19.7917C22.9159 18.8181 22.6422 17.8643 22.1267 17.0384C21.6112 16.2125 20.8746 15.5477 20.0004 15.1192C19.1262 14.6908 18.1494 14.516 17.1809 14.6146C16.2123 14.7132 15.2908 15.0813 14.5209 15.6771C13.5006 14.6608 12.2022 13.9694 10.7894 13.69C9.3767 13.4107 7.91287 13.5559 6.58257 14.1074C5.25226 14.6589 4.11505 15.592 3.31435 16.789C2.51365 17.986 2.08532 19.3932 2.08337 20.8333C2.08337 21.1096 2.19312 21.3745 2.38847 21.5699C2.58382 21.7652 2.84877 21.875 3.12504 21.875H15.625C15.9013 21.875 16.1663 21.7652 16.3616 21.5699C16.557 21.3745 16.6667 21.1096 16.6667 20.8333" fill="#A0ABBB"/>
</svg>
