<svg width="19" height="19" viewBox="0 0 19 19" fill="none" xmlns="http://www.w3.org/2000/svg">
<path d="M7.12492 8.70833C7.75123 8.70833 8.36347 8.52261 8.88423 8.17465C9.40498 7.8267 9.81086 7.33213 10.0505 6.7535C10.2902 6.17487 10.3529 5.53816 10.2307 4.92388C10.1086 4.30961 9.80696 3.74536 9.36409 3.3025C8.92123 2.85963 8.35698 2.55803 7.74271 2.43585C7.12843 2.31366 6.49172 2.37637 5.91309 2.61605C5.33446 2.85573 4.83989 3.26161 4.49193 3.78236C4.14397 4.30312 3.95825 4.91536 3.95825 5.54167C3.95825 6.38152 4.29188 7.18697 4.88575 7.78084C5.47961 8.37471 6.28507 8.70833 7.12492 8.70833Z" fill="#0072BC"/>
<path d="M13.4584 10.292C13.9281 10.292 14.3873 10.1527 14.7779 9.89174C15.1684 9.63077 15.4728 9.25984 15.6526 8.82587C15.8323 8.39189 15.8794 7.91436 15.7877 7.45366C15.6961 6.99295 15.4699 6.56977 15.1378 6.23762C14.8056 5.90547 14.3824 5.67927 13.9217 5.58763C13.461 5.49599 12.9835 5.54302 12.5495 5.72278C12.1155 5.90254 11.7446 6.20695 11.4836 6.59751C11.2227 6.98808 11.0834 7.44726 11.0834 7.917C11.0834 8.54688 11.3336 9.15098 11.779 9.59638C12.2244 10.0418 12.8285 10.292 13.4584 10.292Z" fill="#0072BC"/>
<path d="M16.6249 15.833C16.8349 15.833 17.0362 15.7496 17.1847 15.6011C17.3332 15.4527 17.4166 15.2513 17.4166 15.0413C17.416 14.3014 17.208 13.5765 16.8162 12.9489C16.4244 12.3212 15.8646 11.8159 15.2002 11.4903C14.5358 11.1647 13.7934 11.0318 13.0573 11.1067C12.3213 11.1817 11.6209 11.4614 11.0358 11.9143C10.2603 11.1419 9.27355 10.6164 8.19986 10.4041C7.12618 10.1918 6.01367 10.3022 5.00264 10.7213C3.99161 11.1405 3.12733 11.8496 2.5188 12.7593C1.91027 13.669 1.58473 14.7385 1.58325 15.833C1.58325 16.043 1.66666 16.2443 1.81513 16.3928C1.96359 16.5413 2.16496 16.6247 2.37492 16.6247H11.8749C12.0849 16.6247 12.2862 16.5413 12.4347 16.3928C12.5832 16.2443 12.6666 16.043 12.6666 15.833" fill="#0072BC"/>
</svg>
