<svg width="36" height="39" viewBox="0 0 36 39" fill="none" xmlns="http://www.w3.org/2000/svg">
<rect x="0.5" y="0.5" width="35" height="38" rx="4.5" fill="#E1F3FF" stroke="#0072BC"/>
<g clip-path="url(#clip0)">
<path d="M16.7292 29.5965C11.0535 21.3684 10 20.5239 10 17.5C10 13.3579 13.3579 10 17.5 10C21.6421 10 25 13.3579 25 17.5C25 20.5239 23.9465 21.3684 18.2708 29.5965C17.8983 30.1345 17.1016 30.1345 16.7292 29.5965ZM17.5 20.625C19.2259 20.625 20.625 19.2259 20.625 17.5C20.625 15.7741 19.2259 14.375 17.5 14.375C15.7741 14.375 14.375 15.7741 14.375 17.5C14.375 19.2259 15.7741 20.625 17.5 20.625Z" fill="#0072BC"/>
</g>
<defs>
<clipPath id="clip0">
<rect width="15" height="20" fill="white" transform="translate(10 10)"/>
</clipPath>
</defs>
</svg>
