<svg width="25" height="25" viewBox="0 0 25 25" fill="none" xmlns="http://www.w3.org/2000/svg">
<path d="M12.5 14.0625C13.3629 14.0625 14.0625 13.3629 14.0625 12.5C14.0625 11.6371 13.3629 10.9375 12.5 10.9375C11.6371 10.9375 10.9375 11.6371 10.9375 12.5C10.9375 13.3629 11.6371 14.0625 12.5 14.0625Z" fill="#0072BC"/>
<path d="M22.8021 10.75L21.9792 8.12501C21.8903 7.82163 21.7413 7.53925 21.5409 7.29472C21.3406 7.05019 21.093 6.84851 20.8131 6.70172C20.5331 6.55493 20.2264 6.46602 19.9113 6.44032C19.5963 6.41461 19.2792 6.45263 18.9792 6.55209L18.625 6.66668C18.3476 6.75839 18.052 6.78166 17.7636 6.7345C17.4753 6.68735 17.2025 6.57116 16.9688 6.39584L16.8542 6.31251C16.626 6.1379 16.4421 5.91212 16.3173 5.65337C16.1924 5.39463 16.1301 5.11017 16.1354 4.82293V4.53126C16.1405 3.87712 15.8857 3.24771 15.4271 2.78126C15.2089 2.5609 14.9494 2.3858 14.6634 2.26603C14.3774 2.14626 14.0705 2.08418 13.7604 2.08334H11.1042C10.4669 2.09158 9.8586 2.35125 9.41183 2.80583C8.96506 3.2604 8.71595 3.87306 8.71876 4.51043V4.76043C8.71775 5.06279 8.64892 5.36108 8.51731 5.63331C8.3857 5.90553 8.19469 6.14475 7.95834 6.33334L7.82292 6.43751C7.56182 6.63503 7.25643 6.7658 6.93329 6.81845C6.61016 6.87109 6.27905 6.84402 5.96876 6.73959C5.68377 6.64097 5.38174 6.6012 5.08094 6.62269C4.78014 6.64417 4.48683 6.72647 4.21876 6.86459C3.93965 7.00312 3.69203 7.19761 3.49132 7.43595C3.29061 7.6743 3.1411 7.9514 3.05209 8.25001L2.19792 10.9583C1.99984 11.569 2.05064 12.2331 2.33929 12.8065C2.62793 13.3799 3.13112 13.8162 3.73959 14.0208H3.90626C4.18694 14.126 4.43887 14.2959 4.64158 14.5167C4.84429 14.7375 4.99207 15.003 5.07292 15.2917L5.13542 15.4583C5.25154 15.7772 5.29037 16.1191 5.24873 16.4559C5.20708 16.7927 5.08614 17.1148 4.89584 17.3958C4.51065 17.9204 4.34817 18.5759 4.44376 19.2196C4.53935 19.8634 4.88526 20.4433 5.40626 20.8333L7.56251 22.4688C7.97079 22.7656 8.464 22.9227 8.96876 22.9167C9.10385 22.9299 9.23991 22.9299 9.37501 22.9167C9.68761 22.8562 9.98461 22.7326 10.2479 22.5535C10.5111 22.3744 10.7352 22.1435 10.9063 21.875L11.1458 21.5313C11.3139 21.2902 11.5363 21.092 11.795 20.9527C12.0538 20.8133 12.3416 20.7368 12.6354 20.7292C12.9433 20.7216 13.2481 20.7921 13.5213 20.9342C13.7945 21.0763 14.0273 21.2853 14.1979 21.5417L14.3229 21.7188C14.5005 21.9831 14.7304 22.2082 14.9983 22.3804C15.2662 22.5525 15.5665 22.668 15.8807 22.7197C16.1949 22.7715 16.5164 22.7583 16.8253 22.6811C17.1343 22.6039 17.4241 22.4643 17.6771 22.2708L19.7917 20.6875C20.2916 20.2992 20.6241 19.7344 20.721 19.1088C20.8178 18.4832 20.6717 17.8442 20.3125 17.3229L20.0417 16.9271C19.8788 16.6755 19.7722 16.3916 19.729 16.095C19.6859 15.7984 19.7072 15.496 19.7917 15.2083C19.8777 14.9005 20.0375 14.6182 20.2571 14.3859C20.4767 14.1536 20.7495 13.9782 21.0521 13.875L21.2604 13.8021C21.8632 13.5929 22.3611 13.1575 22.6488 12.588C22.9365 12.0184 22.9915 11.3593 22.8021 10.75ZM12.5 16.1458C11.7789 16.1458 11.074 15.932 10.4745 15.5314C9.87494 15.1308 9.40764 14.5614 9.13169 13.8952C8.85575 13.229 8.78355 12.496 8.92423 11.7887C9.0649 11.0815 9.41213 10.4319 9.92201 9.92202C10.4319 9.41214 11.0815 9.06491 11.7887 8.92423C12.496 8.78355 13.229 8.85575 13.8952 9.1317C14.5614 9.40764 15.1308 9.87494 15.5314 10.4745C15.932 11.074 16.1458 11.7789 16.1458 12.5C16.1458 13.4669 15.7617 14.3943 15.078 15.078C14.3943 15.7617 13.4669 16.1458 12.5 16.1458Z" fill="#0072BC"/>
</svg>
