<svg width="25" height="25" viewBox="0 0 25 25" fill="none" xmlns="http://www.w3.org/2000/svg">
<path d="M12.5 14.0625C13.3629 14.0625 14.0625 13.3629 14.0625 12.5C14.0625 11.6371 13.3629 10.9375 12.5 10.9375C11.6371 10.9375 10.9375 11.6371 10.9375 12.5C10.9375 13.3629 11.6371 14.0625 12.5 14.0625Z" fill="#A0ABBB"/>
<path d="M22.8021 10.7499L21.9792 8.12492C21.8903 7.82154 21.7413 7.53916 21.5409 7.29463C21.3406 7.0501 21.093 6.84842 20.8131 6.70163C20.5331 6.55483 20.2264 6.46593 19.9113 6.44023C19.5963 6.41452 19.2792 6.45253 18.9792 6.552L18.625 6.66659C18.3476 6.7583 18.052 6.78157 17.7636 6.73441C17.4753 6.68725 17.2025 6.57107 16.9688 6.39575L16.8542 6.31242C16.626 6.13781 16.4421 5.91203 16.3173 5.65328C16.1924 5.39454 16.1301 5.11008 16.1354 4.82284V4.53117C16.1405 3.87703 15.8857 3.24762 15.4271 2.78117C15.2089 2.56081 14.9494 2.38571 14.6634 2.26594C14.3774 2.14617 14.0705 2.08409 13.7604 2.08325H11.1042C10.4669 2.09149 9.8586 2.35116 9.41183 2.80573C8.96506 3.26031 8.71595 3.87297 8.71876 4.51034V4.76034C8.71775 5.0627 8.64892 5.36099 8.51731 5.63321C8.3857 5.90544 8.19469 6.14466 7.95834 6.33325L7.82292 6.43742C7.56182 6.63494 7.25643 6.76571 6.93329 6.81835C6.61016 6.871 6.27905 6.84393 5.96876 6.7395C5.68377 6.64088 5.38174 6.60111 5.08094 6.6226C4.78014 6.64408 4.48683 6.72638 4.21876 6.8645C3.93965 7.00303 3.69203 7.19752 3.49132 7.43586C3.29061 7.6742 3.1411 7.9513 3.05209 8.24992L2.19792 10.9583C1.99984 11.5689 2.05064 12.233 2.33929 12.8064C2.62793 13.3798 3.13112 13.8161 3.73959 14.0208H3.90626C4.18694 14.1259 4.43887 14.2958 4.64158 14.5166C4.84429 14.7374 4.99207 15.0029 5.07292 15.2916L5.13542 15.4583C5.25154 15.7771 5.29037 16.119 5.24873 16.4558C5.20708 16.7926 5.08614 17.1148 4.89584 17.3958C4.51065 17.9203 4.34817 18.5758 4.44376 19.2195C4.53935 19.8633 4.88526 20.4432 5.40626 20.8333L7.56251 22.4687C7.97079 22.7655 8.464 22.9226 8.96876 22.9166C9.10385 22.9298 9.23991 22.9298 9.37501 22.9166C9.68761 22.8561 9.98461 22.7325 10.2479 22.5534C10.5111 22.3743 10.7352 22.1435 10.9063 21.8749L11.1458 21.5312C11.3139 21.2901 11.5363 21.0919 11.795 20.9526C12.0538 20.8132 12.3416 20.7367 12.6354 20.7291C12.9433 20.7215 13.2481 20.792 13.5213 20.9341C13.7945 21.0762 14.0273 21.2852 14.1979 21.5416L14.3229 21.7187C14.5005 21.983 14.7304 22.2081 14.9983 22.3803C15.2662 22.5524 15.5665 22.6679 15.8807 22.7197C16.1949 22.7714 16.5164 22.7582 16.8253 22.681C17.1343 22.6038 17.4241 22.4642 17.6771 22.2708L19.7917 20.6874C20.2916 20.2991 20.6241 19.7343 20.721 19.1087C20.8178 18.4831 20.6717 17.8441 20.3125 17.3228L20.0417 16.927C19.8788 16.6754 19.7722 16.3915 19.729 16.0949C19.6859 15.7983 19.7072 15.4959 19.7917 15.2083C19.8777 14.9004 20.0375 14.6181 20.2571 14.3858C20.4767 14.1535 20.7495 13.9781 21.0521 13.8749L21.2604 13.802C21.8632 13.5928 22.3611 13.1574 22.6488 12.5879C22.9365 12.0183 22.9915 11.3593 22.8021 10.7499ZM12.5 16.1458C11.7789 16.1458 11.074 15.9319 10.4745 15.5313C9.87494 15.1307 9.40764 14.5613 9.13169 13.8951C8.85575 13.2289 8.78355 12.4959 8.92423 11.7887C9.0649 11.0814 9.41213 10.4318 9.92201 9.92193C10.4319 9.41205 11.0815 9.06481 11.7887 8.92414C12.496 8.78346 13.229 8.85566 13.8952 9.13161C14.5614 9.40755 15.1308 9.87485 15.5314 10.4744C15.932 11.074 16.1458 11.7788 16.1458 12.4999C16.1458 13.4669 15.7617 14.3942 15.078 15.0779C14.3943 15.7616 13.4669 16.1458 12.5 16.1458Z" fill="#A0ABBB"/>
</svg>
