<svg width="12" height="12" viewBox="0 0 12 12" fill="none" xmlns="http://www.w3.org/2000/svg">
<path d="M7.75 0.166992H4.25C3.60658 0.166992 3.08333 0.690242 3.08333 1.33366V1.91699H0.75V3.08366H1.91667V10.667C1.91667 11.3104 2.43992 11.8337 3.08333 11.8337H8.91667C9.56008 11.8337 10.0833 11.3104 10.0833 10.667V3.08366H11.25V1.91699H8.91667V1.33366C8.91667 0.690242 8.39342 0.166992 7.75 0.166992ZM4.25 1.33366H7.75V1.91699H4.25V1.33366ZM8.91667 10.667H3.08333V3.08366H8.91667V10.667Z" fill="#4E5B6D"/>
<path d="M4.25 4.25033H5.41667V9.50033H4.25V4.25033Z" fill="#4E5B6D"/>
<path d="M6.58333 4.25033H7.75V9.50033H6.58333V4.25033Z" fill="#4E5B6D"/>
</svg>
