<svg width="25" height="20" viewBox="0 0 25 20" fill="none" xmlns="http://www.w3.org/2000/svg">
<path d="M19.0619 7.50057H13.1244V9.68807C13.1244 11.2389 11.8627 12.5006 10.3119 12.5006C8.76114 12.5006 7.49943 11.2389 7.49943 9.68807V4.93807L4.96427 6.46151C4.21036 6.91073 3.74943 7.72714 3.74943 8.60214V10.4498L0.624426 12.2545C0.0267698 12.5982 -0.180261 13.3639 0.167395 13.9615L3.29239 19.3756C3.63614 19.9732 4.40177 20.1764 4.99943 19.8326L9.03849 17.5006H14.3744C15.7533 17.5006 16.8744 16.3795 16.8744 15.0006H17.4994C18.1908 15.0006 18.7494 14.442 18.7494 13.7506V11.2506H19.0619C19.5815 11.2506 19.9994 10.8326 19.9994 10.3131V8.43807C19.9994 7.91854 19.5815 7.50057 19.0619 7.50057ZM24.8315 6.03964L21.7065 0.625574C21.3627 0.0279178 20.5971 -0.175207 19.9994 0.168543L15.9604 2.50057H11.9682C11.4994 2.50057 11.0424 2.63339 10.644 2.87948L9.33536 3.69589C8.96817 3.92245 8.74942 4.32479 8.74942 4.75448V9.68807C8.74942 10.5514 9.44864 11.2506 10.3119 11.2506C11.1752 11.2506 11.8744 10.5514 11.8744 9.68807V6.25057H19.0619C20.269 6.25057 21.2494 7.23104 21.2494 8.43807V9.55136L24.3744 7.74667C24.9721 7.39901 25.1752 6.63729 24.8315 6.03964Z" fill="#0072BC"/>
</svg>
